<svg width="151" height="70" viewBox="0 0 151 70" fill="none" xmlns="http://www.w3.org/2000/svg">
<g clip-path="url(#clip0_27_128)">
<path d="M14.2349 0H0V55.1501V70H14.2349H37.6564V55.1501H14.2349V0Z" fill="#231F20"/>
<path d="M55.9586 0H41.7236V70H55.9586V0Z" fill="#231F20"/>
<path d="M136.765 0.032711V44.34C136.765 47.2157 135.67 49.9736 133.721 52.007C131.771 54.0404 129.128 55.1828 126.371 55.1828C123.615 55.1828 120.971 54.0404 119.022 52.007C117.072 49.9736 115.977 47.2157 115.977 44.34V0.032711H101.775V44.34C101.722 47.7486 102.32 51.134 103.533 54.2992C104.747 57.4643 106.553 60.3458 108.845 62.7758C111.137 65.2058 113.869 67.1356 116.883 68.4529C119.897 69.7702 123.132 70.4487 126.4 70.4487C129.668 70.4487 132.903 69.7702 135.917 68.4529C138.931 67.1356 141.664 65.2058 143.956 62.7758C146.248 60.3458 148.053 57.4643 149.267 54.2992C150.481 51.134 151.079 47.7486 151.026 44.34V0.032711H136.765Z" fill="#231F20"/>
<path d="M60.019 0V14.8499V24.3929V39.2428V55.1501V70H74.254H97.6754V55.1501H74.254V39.2428H90.9744V24.3929H74.254V14.8499H97.6754V0H74.254H60.019Z" fill="#231F20"/>
</g>
<defs>
<clipPath id="clip0_27_128">
<rect width="151" height="70" fill="white"/>
</clipPath>
</defs>
</svg>
